<?xml version="1.0" encoding="utf-8"?>
<!-- Generator: Adobe Illustrator 25.2.1, SVG Export Plug-In . SVG Version: 6.00 Build 0)  -->
<svg version="1.1" id="Layer_1" xmlns="http://www.w3.org/2000/svg" xmlns:xlink="http://www.w3.org/1999/xlink" x="0px" y="0px"
	 viewBox="0 0 212 44.7" style="enable-background:new 0 0 212 44.7;" xml:space="preserve">
<style type="text/css">
	.st0{fill:#201D1E;}
</style>
<g>
	<g>
		<path class="st0" d="M6.1,18.6V2.2H0V0h14.7v2.2H8.6v16.4H6.1z"/>
		<path class="st0" d="M13.3,18.6L20.4,0h2.7l7.6,18.6h-2.8L25.7,13h-7.8l-2,5.6H13.3z M18.7,11H25L23,5.8C22.4,4.2,22,3,21.7,2
			c-0.2,1.2-0.6,2.4-1,3.6L18.7,11z"/>
		<path class="st0" d="M32.6,18.6V0h3.7l4.4,13.2c0.4,1.2,0.7,2.1,0.9,2.8c0.2-0.7,0.5-1.7,1-3L47,0h3.3v18.6H48V3l-5.4,15.6h-2.2
			L35,2.8v15.8H32.6z"/>
		<path class="st0" d="M52.2,18.6L59.4,0H62l7.6,18.6h-2.8L64.7,13h-7.8l-2,5.6H52.2z M57.6,11h6.3L62,5.8c-0.6-1.6-1-2.8-1.3-3.9
			c-0.2,1.2-0.6,2.4-1,3.6L57.6,11z"/>
		<path class="st0" d="M71.7,18.6V0h8.2c1.7,0,2.9,0.2,3.8,0.5s1.6,0.9,2.1,1.8c0.5,0.8,0.8,1.8,0.8,2.8c0,1.3-0.4,2.4-1.3,3.3
			c-0.9,0.9-2.2,1.5-4,1.7c0.7,0.3,1.1,0.6,1.5,0.9c0.7,0.7,1.4,1.5,2,2.5l3.2,5.1h-3.1l-2.5-3.9c-0.7-1.1-1.3-2-1.8-2.6
			c-0.5-0.6-0.9-1-1.2-1.2c-0.4-0.2-0.7-0.4-1.1-0.5c-0.3-0.1-0.7-0.1-1.4-0.1h-2.9v8.3H71.7z M74.1,8.2h5.3c1.1,0,2-0.1,2.6-0.3
			c0.6-0.2,1.1-0.6,1.4-1.1C83.8,6.2,84,5.7,84,5.1c0-0.9-0.3-1.6-1-2.2c-0.6-0.6-1.6-0.8-3-0.8h-5.9V8.2z"/>
	</g>
	<g>
		<path class="st0" d="M10.4,37.1v-2.2l7.9,0v6.9c-1.2,1-2.5,1.7-3.7,2.2c-1.3,0.5-2.6,0.7-4,0.7c-1.8,0-3.5-0.4-5-1.2
			c-1.5-0.8-2.6-1.9-3.4-3.4c-0.8-1.5-1.1-3.1-1.1-5c0-1.8,0.4-3.5,1.1-5.1c0.8-1.6,1.8-2.7,3.3-3.5c1.4-0.8,3.1-1.1,4.9-1.1
			c1.3,0,2.6,0.2,3.6,0.7s1.9,1,2.6,1.8c0.6,0.8,1.1,1.8,1.4,3l-2.2,0.6c-0.3-0.9-0.6-1.7-1-2.2c-0.4-0.5-1-1-1.8-1.3
			c-0.8-0.3-1.6-0.5-2.6-0.5c-1.1,0-2.1,0.2-2.9,0.5c-0.8,0.3-1.5,0.8-2,1.4C5,30,4.6,30.6,4.3,31.3c-0.5,1.1-0.7,2.4-0.7,3.7
			c0,1.7,0.3,3,0.9,4.2c0.6,1.1,1.4,1.9,2.5,2.5c1.1,0.5,2.2,0.8,3.5,0.8c1.1,0,2.1-0.2,3.1-0.6c1-0.4,1.8-0.8,2.3-1.3v-3.5H10.4z"
			/>
		<path class="st0" d="M22,44.4V25.8h13.4V28h-11v5.7h10.3v2.2H24.4v6.3h11.4v2.2H22z"/>
		<path class="st0" d="M39.2,44.4V25.8h6.4c1.4,0,2.5,0.1,3.3,0.3c1.1,0.2,2,0.7,2.7,1.3c1,0.8,1.7,1.9,2.2,3.2
			c0.5,1.3,0.7,2.8,0.7,4.4c0,1.4-0.2,2.7-0.5,3.8c-0.3,1.1-0.8,2-1.3,2.7c-0.5,0.7-1.1,1.3-1.7,1.7c-0.6,0.4-1.4,0.7-2.2,0.9
			c-0.9,0.2-1.9,0.3-3,0.3H39.2z M41.7,42.2h4c1.2,0,2.2-0.1,2.9-0.3c0.7-0.2,1.3-0.5,1.7-1c0.6-0.6,1-1.4,1.4-2.4
			c0.3-1,0.5-2.2,0.5-3.6c0-1.9-0.3-3.4-1-4.5c-0.6-1-1.4-1.7-2.3-2.1c-0.7-0.3-1.7-0.4-3.2-0.4h-3.9V42.2z"/>
		<path class="st0" d="M58,44.4V25.8h13.4V28h-11v5.7h10.3v2.2H60.5v6.3h11.4v2.2H58z"/>
		<path class="st0" d="M80.6,44.4l-7.2-18.6h2.7l4.8,13.5c0.4,1.1,0.7,2.1,1,3c0.3-1,0.6-2,1-3l5-13.5h2.5l-7.3,18.6H80.6z"/>
		<path class="st0" d="M88.7,44.4l7.1-18.6h2.7l7.6,18.6h-2.8l-2.2-5.6h-7.8l-2,5.6H88.7z M94,36.7h6.3l-1.9-5.1
			c-0.6-1.6-1-2.8-1.3-3.9c-0.2,1.2-0.6,2.4-1,3.6L94,36.7z"/>
		<path class="st0" d="M108,44.4V25.8h2.5l9.8,14.6V25.8h2.4v18.6h-2.5l-9.8-14.6v14.6H108z"/>
		<path class="st0" d="M127.2,44.4V25.8h2.5v18.6H127.2z"/>
		<path class="st0" d="M133.2,38.4l2.3-0.2c0.1,0.9,0.4,1.7,0.8,2.3c0.4,0.6,1,1.1,1.9,1.4c0.8,0.4,1.8,0.6,2.9,0.6
			c0.9,0,1.8-0.1,2.5-0.4c0.7-0.3,1.3-0.7,1.6-1.1c0.4-0.5,0.5-1,0.5-1.6c0-0.6-0.2-1.1-0.5-1.5c-0.3-0.4-0.9-0.8-1.7-1.1
			c-0.5-0.2-1.6-0.5-3.3-0.9c-1.7-0.4-2.9-0.8-3.6-1.2c-0.9-0.5-1.5-1-2-1.7c-0.4-0.7-0.7-1.5-0.7-2.3c0-0.9,0.3-1.8,0.8-2.6
			s1.3-1.4,2.3-1.9c1-0.4,2.2-0.6,3.4-0.6c1.4,0,2.6,0.2,3.6,0.7c1.1,0.4,1.9,1.1,2.4,2c0.6,0.9,0.9,1.8,0.9,2.9l-2.4,0.2
			c-0.1-1.2-0.6-2.1-1.3-2.7s-1.8-0.9-3.2-0.9c-1.5,0-2.6,0.3-3.3,0.8c-0.7,0.5-1,1.2-1,2c0,0.7,0.2,1.2,0.7,1.6
			c0.5,0.4,1.7,0.9,3.7,1.3c2,0.5,3.4,0.8,4.1,1.2c1.1,0.5,1.9,1.1,2.4,1.9s0.8,1.6,0.8,2.6c0,1-0.3,1.9-0.8,2.8
			c-0.6,0.9-1.4,1.6-2.4,2c-1.1,0.5-2.3,0.7-3.6,0.7c-1.7,0-3.1-0.2-4.2-0.7c-1.1-0.5-2-1.2-2.7-2.2
			C133.5,40.8,133.2,39.7,133.2,38.4z"/>
		<path class="st0" d="M151.4,44.4V25.8h2.5v7.6h9.7v-7.6h2.5v18.6h-2.5v-8.8h-9.7v8.8H151.4z"/>
		<path class="st0" d="M175.4,44.4l-7.2-18.6h2.7l4.8,13.5c0.4,1.1,0.7,2.1,1,3c0.3-1,0.6-2,1-3l5-13.5h2.5l-7.3,18.6H175.4z"/>
		<path class="st0" d="M187.8,44.4V25.8h2.5v18.6H187.8z"/>
		<path class="st0" d="M194.5,44.4V25.8h2.5v16.4h9.2v2.2H194.5z"/>
		<path class="st0" d="M209.5,44.4V25.8h2.5v18.6H209.5z"/>
	</g>
</g>
</svg>
