<?xml version="1.0" encoding="utf-8"?>
<!-- Generator: Adobe Illustrator 22.1.0, SVG Export Plug-In . SVG Version: 6.00 Build 0)  -->
<svg version="1.1" id="Layer_1" xmlns="http://www.w3.org/2000/svg" xmlns:xlink="http://www.w3.org/1999/xlink" x="0px" y="0px"
	 viewBox="0 0 288.6 44.7" style="enable-background:new 0 0 288.6 44.7;" xml:space="preserve">
<style type="text/css">
	.st0{fill:#201D1E;}
</style>
<g>
	<g>
		<path class="st0" d="M14.7,6.8c0,0.3-0.1,0.5-0.2,0.7c-0.2,0.2-0.3,0.3-0.5,0.4c-0.3,0.1-0.6,0.2-0.9,0.3s-0.7,0.2-1,0.3
			c-0.3,0.1-0.7,0.1-1,0.2c-0.3,0.1-0.7,0.1-1,0.1C9.7,8.9,9.4,8.9,9,8.9C8.6,9,8.3,9,7.9,9c-0.4,0-0.7,0.1-1,0.1S6.4,9.3,6.2,9.3
			c-0.2,0.7-0.3,1.4-0.5,2.1c-0.2,0.7-0.3,1.3-0.5,2c0,0.2-0.1,0.4-0.1,0.7S5,14.7,4.9,15c0,0.3-0.1,0.6-0.1,0.9
			c0,0.3-0.1,0.5-0.1,0.6c0,0.3,0.1,0.6,0.2,0.7s0.2,0.3,0.3,0.4c0.1,0.1,0.2,0.2,0.3,0.3c0.1,0.1,0.2,0.2,0.2,0.4
			c0,0.1-0.1,0.2-0.2,0.3c-0.1,0.1-0.2,0.2-0.4,0.3c-0.2,0.1-0.3,0.1-0.5,0.2c-0.2,0-0.3,0.1-0.4,0.1c-0.2,0-0.4-0.1-0.6-0.2
			c-0.2-0.1-0.3-0.3-0.5-0.5S3,18.1,2.9,17.8c-0.1-0.3-0.1-0.5-0.1-0.8c0-0.4,0-0.8,0.1-1.2C2.9,15.4,3,15,3.1,14.6
			c0.1-0.4,0.2-0.9,0.3-1.3c0.1-0.5,0.2-0.9,0.3-1.4c0-0.2,0.1-0.4,0.1-0.6s0.1-0.4,0.1-0.6s0.1-0.3,0.1-0.4c0-0.1,0-0.2,0-0.2
			c0-0.1,0-0.2-0.1-0.3C3.9,9.7,3.8,9.6,3.6,9.6c-0.1,0-0.2,0-0.4,0c-0.2,0-0.4,0-0.6,0.1c-0.2,0-0.4,0-0.6,0.1c-0.2,0-0.3,0-0.4,0
			c-0.3,0-0.5,0-0.7-0.1c-0.2,0-0.4-0.1-0.5-0.2C0.2,9.4,0.1,9.3,0.1,9.1S0,8.7,0,8.5c0-0.1,0.1-0.2,0.2-0.3
			c0.1-0.1,0.2-0.1,0.4-0.1C0.7,8,0.8,8,1,8c0.2,0,0.3,0,0.4,0C1.5,8,1.7,8,2,8c0.2,0,0.5,0,0.7-0.1c0.3,0,0.5,0,0.7-0.1
			c0.2,0,0.4,0,0.5,0c0,0,0.1,0,0.2,0c0.1,0,0.1,0,0.2-0.1s0.1-0.1,0.2-0.2c0.1-0.1,0.1-0.2,0.1-0.4C4.7,7,4.8,6.7,4.8,6.4
			s0.2-0.7,0.2-1s0.2-0.7,0.2-1C5.4,4,5.5,3.7,5.5,3.5C5.6,3.3,5.7,3,5.7,2.8C5.8,2.5,5.8,2.3,5.9,2C5.9,1.8,6,1.5,6,1.3
			C6.1,1,6.1,0.8,6.2,0.6C6.4,0.2,6.7,0,7.1,0C7.7,0,8,0.3,8,1c0,0.4-0.1,0.9-0.3,1.4C7.3,3.6,7,4.6,6.8,5.4C6.7,6.2,6.6,6.7,6.6,7
			c0,0.3,0.1,0.4,0.4,0.4c0.4,0,0.7,0,1,0c0.3,0,0.6,0,1-0.1c0.3,0,0.7-0.1,1-0.1c0.4,0,0.8-0.1,1.2-0.1c0.3,0,0.6-0.1,0.9-0.1
			c0.3-0.1,0.6-0.1,0.8-0.2c0.2-0.1,0.5-0.1,0.7-0.1c0.2,0,0.4-0.1,0.5-0.1c0.1,0,0.2,0,0.3,0c0.1,0,0.2,0,0.2,0
			c0.1,0,0.1,0,0.1,0.1C14.7,6.6,14.7,6.7,14.7,6.8z"/>
		<path class="st0" d="M28,7.8c0,0.3-0.1,0.6-0.2,0.9s-0.3,0.6-0.5,0.8c-0.5,0.7-1,1.3-1.6,1.9C25.1,12,24.6,12.5,24,13
			c-0.6,0.5-1.2,0.9-1.7,1.2c-0.6,0.3-1.1,0.4-1.6,0.4c-0.2,0-0.4,0-0.6-0.1s-0.4-0.2-0.5-0.4c-0.2-0.2-0.3-0.3-0.5-0.5
			c-0.1-0.2-0.2-0.4-0.3-0.6c0-0.1-0.1-0.3-0.1-0.4c0-0.2-0.1-0.3-0.1-0.4c0-0.1-0.1-0.2-0.1-0.3c0-0.1-0.1-0.1-0.1-0.1
			c0,0-0.1,0.1-0.2,0.2s-0.2,0.2-0.4,0.4c-0.1,0.2-0.3,0.3-0.4,0.5s-0.3,0.4-0.5,0.6c-0.2,0.2-0.3,0.4-0.4,0.5
			c-0.1,0.2-0.2,0.3-0.3,0.4c-0.2,0.3-0.5,0.6-0.9,0.9c-0.3,0.3-0.7,0.6-1,0.8c-0.3,0.2-0.6,0.4-0.9,0.6c-0.3,0.2-0.5,0.2-0.6,0.2
			c-0.3,0-0.6,0-0.9-0.1s-0.5-0.2-0.7-0.4c-0.2-0.2-0.4-0.4-0.5-0.7c-0.1-0.3-0.2-0.6-0.2-1c0-0.6,0.1-1.3,0.4-2s0.5-1.5,0.9-2.3
			c0.4-0.8,0.8-1.5,1.3-2.3c0.5-0.7,1-1.3,1.6-1.9c0.6-0.6,1.3-1,2-1.3s1.4-0.4,2.1-0.4c0.1,0,0.3,0,0.4,0.1
			c0.1,0.1,0.2,0.1,0.3,0.2c0.1,0.1,0.1,0.2,0.2,0.3s0.1,0.2,0.2,0.3c0,0.1,0.1,0.2,0.2,0.2c0.1,0.1,0.2,0.2,0.3,0.3
			c0.1,0.1,0.2,0.2,0.3,0.3c0.1,0.1,0.1,0.2,0.1,0.3c0,0.2,0,0.4-0.1,0.6c-0.1,0.2-0.1,0.4-0.2,0.7C20.2,7.7,20.1,8,20,8.4
			c-0.1,0.3-0.1,0.7-0.1,1.2c0,0.3,0,0.6,0.1,1c0.1,0.4,0.1,0.7,0.2,1s0.2,0.6,0.4,0.8c0.2,0.2,0.4,0.3,0.6,0.3
			c0.3,0,0.5-0.1,0.8-0.2s0.6-0.4,0.9-0.7c0.8-0.6,1.5-1.3,2.2-2c0.7-0.7,1.4-1.5,2.2-2.2c0.1-0.1,0.2-0.2,0.4-0.2
			C27.9,7.4,28,7.6,28,7.8z M18.7,6.5c0,0,0-0.1,0-0.1c0-0.1-0.1-0.1-0.1-0.2c0-0.1-0.1-0.1-0.2-0.2c-0.1-0.1-0.1-0.1-0.2-0.1h0
			c-0.3,0-0.6,0.1-0.9,0.3c-0.3,0.2-0.7,0.4-1.1,0.8c-0.4,0.3-0.8,0.8-1.2,1.3s-0.8,1.2-1.3,1.9c-0.1,0.2-0.3,0.5-0.4,0.8
			c-0.2,0.3-0.3,0.6-0.5,0.9s-0.3,0.7-0.4,1.1s-0.1,0.8-0.1,1.2c0,0.2,0.1,0.4,0.3,0.6c0.2,0.1,0.4,0.2,0.6,0.2
			c0.2,0,0.5-0.1,0.8-0.3c0.3-0.2,0.7-0.5,1-0.9c0.4-0.4,0.7-0.8,1.1-1.2c0.4-0.5,0.7-0.9,1.1-1.4c0.3-0.5,0.6-1,0.9-1.5
			c0.2-0.5,0.4-0.9,0.5-1.3c0-0.1,0.1-0.3,0.1-0.4c0-0.2,0.1-0.3,0.1-0.5c0-0.2,0.1-0.3,0.1-0.5C18.6,6.6,18.7,6.5,18.7,6.5z"/>
		<path class="st0" d="M52.9,9c0,0.1,0,0.2,0,0.3s-0.1,0.2-0.1,0.4s-0.1,0.3-0.2,0.4s-0.1,0.2-0.2,0.4c-0.1,0.2-0.3,0.4-0.5,0.7
			c-0.2,0.3-0.5,0.6-0.7,0.8c-0.3,0.3-0.5,0.6-0.8,0.9c-0.3,0.3-0.6,0.6-0.9,0.8c-0.2,0.2-0.5,0.4-0.8,0.6c-0.3,0.2-0.6,0.4-1,0.6
			c-0.3,0.2-0.7,0.4-1,0.5c-0.4,0.1-0.7,0.2-1,0.2c-0.3,0-0.5,0-0.8-0.1c-0.2-0.1-0.4-0.2-0.6-0.4c-0.2-0.2-0.4-0.5-0.5-0.9
			c-0.1-0.4-0.3-0.9-0.4-1.5c0-0.3-0.1-0.5-0.1-0.8c0-0.3-0.1-0.6-0.1-0.9c0-0.3-0.1-0.6-0.1-0.8c0-0.3-0.1-0.5-0.1-0.7
			S42.8,9.1,42.8,9c-0.1-0.1-0.1-0.2-0.2-0.2c-0.1,0-0.2,0.1-0.4,0.3c-0.2,0.2-0.4,0.4-0.7,0.8S41,10.5,40.7,11s-0.6,1-0.9,1.6
			c-0.6,1.1-1.2,2-1.6,2.6c-0.4,0.6-0.9,0.9-1.2,0.9c-0.5,0-0.9-0.3-1.1-0.8c-0.2-0.5-0.3-1.4-0.3-2.6c0-1.2-0.1-2.1-0.3-2.8
			c-0.1-0.6-0.3-1-0.6-1c-0.1,0-0.4,0.1-0.6,0.4c-0.3,0.3-0.6,0.6-0.9,1.1c-0.3,0.5-0.7,1-1.1,1.6s-0.8,1.3-1.2,2
			c-0.1,0.2-0.2,0.4-0.4,0.7c-0.1,0.2-0.3,0.5-0.4,0.7s-0.3,0.5-0.4,0.7c-0.1,0.2-0.3,0.4-0.4,0.5c-0.2,0.3-0.5,0.5-0.8,0.5
			c-0.6,0-1-0.3-1.2-0.9c0-0.2-0.1-0.3-0.1-0.4s0-0.2-0.1-0.3c0-0.1,0-0.2,0-0.3s0-0.3,0-0.5c0-0.3,0-0.6,0-0.9c0-0.3,0-0.5,0.1-0.8
			c0-0.3,0.1-0.6,0.1-0.9s0.1-0.7,0.1-1.1c0-0.3,0.1-0.7,0.1-1.1s0.1-0.8,0.1-1.1c0-0.4,0.1-0.7,0.1-1c0-0.3,0.1-0.6,0.1-0.7
			c0-0.1,0.1-0.2,0.2-0.3c0.1-0.1,0.2-0.2,0.3-0.4c0.1-0.1,0.2-0.2,0.4-0.3C28.6,6,28.7,6,28.8,6c0.2,0,0.3,0,0.4,0.1
			c0.1,0.1,0.2,0.2,0.3,0.3s0.1,0.3,0.1,0.4c0,0.2,0,0.3,0,0.5c0,0.2,0,0.4-0.1,0.7c0,0.3-0.1,0.6-0.1,0.9c-0.1,0.3-0.1,0.7-0.2,1
			c-0.1,0.4-0.1,0.7-0.2,1C29,11.4,29,11.7,28.9,12c-0.1,0.3-0.1,0.5-0.1,0.7c-0.1,0.4-0.1,0.8-0.1,1s0,0.5,0,0.6
			c0.1-0.1,0.2-0.3,0.4-0.5c0.2-0.2,0.3-0.4,0.5-0.7c0.2-0.3,0.4-0.6,0.6-0.9c0.2-0.3,0.4-0.7,0.6-1c0.2-0.2,0.3-0.5,0.5-0.8
			c0.2-0.3,0.4-0.6,0.6-0.9c0.2-0.3,0.4-0.6,0.6-0.9S32.9,8,33,7.8c0.3-0.4,0.7-0.7,1-0.9s0.7-0.3,1.1-0.3c0.4,0,0.7,0.1,1,0.4
			c0.3,0.3,0.5,0.7,0.6,1.2c0,0.2,0.1,0.5,0.1,0.8c0,0.3,0.1,0.6,0.1,0.9s0,0.6,0.1,1c0,0.3,0,0.6,0.1,0.9c0,0.3,0.1,0.5,0.1,0.7
			s0.1,0.3,0.1,0.4s0.1,0.2,0.1,0.2c0,0,0.1,0.1,0.1,0.1c0.2,0,0.4-0.3,0.8-0.9c0.2-0.3,0.4-0.7,0.6-1.1c0.2-0.4,0.5-0.8,0.7-1.3
			c0.3-0.5,0.6-0.9,0.9-1.3c0.3-0.4,0.6-0.8,0.9-1.1c0.3-0.3,0.6-0.6,0.8-0.8c0.3-0.2,0.5-0.3,0.7-0.3c0.1,0,0.2,0,0.4,0
			c0.1,0,0.3,0.1,0.4,0.1s0.2,0.1,0.3,0.2c0.1,0.1,0.2,0.1,0.2,0.2c0.1,0.2,0.2,0.4,0.3,0.7c0.1,0.2,0.1,0.5,0.1,0.8
			c0,0.3,0,0.7,0.1,1.1c0,0.4,0.1,0.8,0.1,1.3c0.1,1,0.3,1.7,0.5,2.2c0.2,0.5,0.6,0.7,1,0.7c0.2,0,0.4-0.1,0.6-0.2
			c0.3-0.1,0.5-0.3,0.8-0.4c0.3-0.2,0.6-0.4,0.9-0.6c0.3-0.2,0.6-0.5,0.8-0.7c0.3-0.2,0.5-0.4,0.7-0.7c0.2-0.2,0.5-0.5,0.7-0.7
			c0.2-0.2,0.5-0.5,0.7-0.7c0.3-0.3,0.5-0.5,0.8-0.8c0.1-0.1,0.2-0.1,0.3-0.1C52.8,8.7,52.9,8.8,52.9,9z"/>
		<path class="st0" d="M67.8,7.8c0,0.3-0.1,0.6-0.2,0.9s-0.3,0.6-0.5,0.8c-0.5,0.7-1,1.3-1.6,1.9C65,12,64.4,12.5,63.9,13
			c-0.6,0.5-1.2,0.9-1.7,1.2c-0.6,0.3-1.1,0.4-1.6,0.4c-0.2,0-0.4,0-0.6-0.1s-0.4-0.2-0.5-0.4c-0.2-0.2-0.3-0.3-0.5-0.5
			c-0.1-0.2-0.2-0.4-0.3-0.6c0-0.1-0.1-0.3-0.1-0.4c0-0.2-0.1-0.3-0.1-0.4c0-0.1-0.1-0.2-0.1-0.3c0-0.1-0.1-0.1-0.1-0.1
			c0,0-0.1,0.1-0.2,0.2s-0.2,0.2-0.4,0.4c-0.1,0.2-0.3,0.3-0.4,0.5s-0.3,0.4-0.5,0.6c-0.2,0.2-0.3,0.4-0.4,0.5
			c-0.1,0.2-0.2,0.3-0.3,0.4c-0.2,0.3-0.5,0.6-0.9,0.9c-0.3,0.3-0.7,0.6-1,0.8c-0.3,0.2-0.6,0.4-0.9,0.6c-0.3,0.2-0.5,0.2-0.6,0.2
			c-0.3,0-0.6,0-0.9-0.1s-0.5-0.2-0.7-0.4c-0.2-0.2-0.4-0.4-0.5-0.7c-0.1-0.3-0.2-0.6-0.2-1c0-0.6,0.1-1.3,0.4-2s0.5-1.5,0.9-2.3
			c0.4-0.8,0.8-1.5,1.3-2.3c0.5-0.7,1-1.3,1.6-1.9c0.6-0.6,1.3-1,2-1.3s1.4-0.4,2.1-0.4c0.1,0,0.3,0,0.4,0.1s0.2,0.1,0.3,0.2
			c0.1,0.1,0.1,0.2,0.2,0.3s0.1,0.2,0.2,0.3c0,0.1,0.1,0.2,0.2,0.2c0.1,0.1,0.2,0.2,0.3,0.3c0.1,0.1,0.2,0.2,0.3,0.3
			c0.1,0.1,0.1,0.2,0.1,0.3c0,0.2,0,0.4-0.1,0.6c-0.1,0.2-0.1,0.4-0.2,0.7C60,7.7,59.9,8,59.9,8.4c-0.1,0.3-0.1,0.7-0.1,1.2
			c0,0.3,0,0.6,0.1,1c0.1,0.4,0.1,0.7,0.2,1c0.1,0.3,0.2,0.6,0.4,0.8c0.2,0.2,0.4,0.3,0.6,0.3c0.3,0,0.5-0.1,0.8-0.2
			c0.3-0.2,0.6-0.4,0.9-0.7c0.8-0.6,1.5-1.3,2.2-2s1.4-1.5,2.2-2.2c0.1-0.1,0.2-0.2,0.4-0.2C67.8,7.4,67.8,7.6,67.8,7.8z M58.5,6.5
			c0,0,0-0.1,0-0.1c0-0.1-0.1-0.1-0.1-0.2S58.3,6,58.2,5.9C58.1,5.8,58,5.8,58,5.8h0c-0.3,0-0.6,0.1-0.9,0.3
			c-0.3,0.2-0.7,0.4-1.1,0.8c-0.4,0.3-0.8,0.8-1.2,1.3s-0.8,1.2-1.3,1.9c-0.1,0.2-0.3,0.5-0.4,0.8c-0.2,0.3-0.3,0.6-0.5,0.9
			c-0.1,0.3-0.3,0.7-0.4,1.1S52,13.6,52,14c0,0.2,0.1,0.4,0.3,0.6c0.2,0.1,0.4,0.2,0.6,0.2c0.2,0,0.5-0.1,0.8-0.3
			c0.3-0.2,0.7-0.5,1-0.9c0.4-0.4,0.7-0.8,1.1-1.2c0.4-0.5,0.7-0.9,1.1-1.4c0.3-0.5,0.6-1,0.9-1.5C58,9,58.1,8.5,58.2,8.1
			c0-0.1,0.1-0.3,0.1-0.4c0-0.2,0.1-0.3,0.1-0.5c0-0.2,0.1-0.3,0.1-0.5C58.5,6.6,58.5,6.5,58.5,6.5z"/>
		<path class="st0" d="M77.6,7.4c0,0.2-0.1,0.4-0.2,0.6c-0.1,0.2-0.3,0.2-0.5,0.2c-0.3,0-0.5,0-0.7-0.1s-0.3-0.2-0.4-0.3
			c-0.1-0.1-0.2-0.2-0.4-0.3c-0.1-0.1-0.3-0.1-0.5-0.1c-0.2,0-0.4,0.1-0.6,0.2c-0.2,0.1-0.5,0.3-0.7,0.5c-0.2,0.2-0.5,0.4-0.7,0.7
			s-0.5,0.5-0.7,0.8c-0.2,0.2-0.3,0.4-0.5,0.7s-0.4,0.5-0.5,0.8c-0.2,0.3-0.3,0.5-0.5,0.8s-0.3,0.5-0.4,0.8
			c-0.1,0.2-0.2,0.4-0.2,0.6c-0.1,0.2-0.2,0.4-0.3,0.7c-0.1,0.2-0.2,0.5-0.2,0.7c-0.1,0.2-0.1,0.5-0.2,0.7c0,0.3-0.1,0.6-0.1,0.9
			c0,0.3-0.1,0.5-0.2,0.8c-0.1,0.2-0.1,0.4-0.2,0.5c-0.1,0.1-0.2,0.2-0.4,0.2c-0.3,0-0.5,0-0.7-0.1c-0.2-0.1-0.3-0.2-0.4-0.4
			c-0.1-0.1-0.2-0.3-0.2-0.5c0-0.2-0.1-0.4-0.1-0.6c0-0.3,0-0.7-0.1-1c0-0.3-0.1-0.6-0.1-0.9s0-0.6-0.1-1c0-0.4,0-0.7,0-1.2
			c0-0.4,0-0.9,0-1.4s0.1-1,0.1-1.5c0-0.5,0.1-0.9,0.1-1.2c0.1-0.4,0.1-0.6,0.1-0.7c0.1-0.2,0.2-0.4,0.3-0.6
			c0.1-0.2,0.2-0.4,0.4-0.5s0.3-0.3,0.4-0.4c0.1-0.1,0.3-0.1,0.4-0.1c0.1,0,0.2,0,0.3,0s0.2,0.1,0.3,0.1c0.1,0.1,0.2,0.2,0.2,0.3
			c0.1,0.1,0.1,0.3,0.1,0.4c0,0.1,0,0.2-0.1,0.5s-0.2,0.5-0.3,0.9s-0.2,0.7-0.3,1c-0.1,0.4-0.2,0.7-0.2,0.9c0,0.1,0,0.2,0,0.3
			c0,0.2,0,0.3,0,0.6c0,0.2,0,0.4,0,0.7c0,0.2,0,0.5,0,0.7c0,0.2,0,0.3,0,0.4c0,0.1,0,0.2,0,0.3c0.1-0.1,0.2-0.3,0.3-0.6
			c0.1-0.2,0.2-0.5,0.3-0.8c0.1-0.3,0.3-0.6,0.4-0.9c0.1-0.3,0.3-0.6,0.5-0.8c0.2-0.3,0.4-0.6,0.6-0.9c0.2-0.3,0.5-0.6,0.7-1
			c0.3-0.3,0.5-0.6,0.8-0.9C72.7,6.5,73,6.2,73.3,6c0.3-0.2,0.6-0.4,1-0.6c0.3-0.1,0.7-0.2,1.1-0.2c0.4,0,0.7,0.1,1,0.2
			c0.3,0.1,0.5,0.3,0.7,0.5s0.3,0.4,0.4,0.7S77.6,7.1,77.6,7.4z"/>
	</g>
	<g>
		<path class="st0" d="M13.1,36.2v-2.8h11.1v2.8h-0.7c-0.7,0-1.1,0.1-1.3,0.2c-0.2,0.2-0.3,0.7-0.3,1.5v6.4h-3.7l-0.7-1.2
			c-1,0.6-2,1-3,1.3c-1,0.3-2,0.4-3,0.4c-3.1,0-5.6-1-7.4-2.9C2.5,40,1.6,37.4,1.6,34c0-3.2,1-5.8,2.9-7.8c1.9-2,4.5-2.9,7.6-2.9
			c1.1,0,2.1,0.1,3,0.4c0.9,0.2,1.7,0.6,2.4,1.1l0.5-1.1h3.2v8.3h-3.5c-0.3-1.9-0.8-3.3-1.6-4.2c-0.7-0.9-1.7-1.3-2.9-1.3
			c-1.4,0-2.4,0.6-3,1.8c-0.6,1.2-0.9,3.1-0.9,5.8c0,2.7,0.3,4.6,0.9,5.8s1.6,1.8,2.9,1.8c0.9,0,1.5-0.1,1.8-0.4s0.5-0.9,0.5-1.8
			v-1.5c0-0.8-0.1-1.2-0.3-1.4s-0.7-0.3-1.4-0.3H13.1z"/>
		<path class="st0" d="M46.9,24v7.5h-3.2c-0.2-1-0.4-1.7-0.7-2.3c-0.2-0.5-0.5-1-0.8-1.3c-0.4-0.4-0.8-0.7-1.4-0.8
			c-0.5-0.2-1.4-0.2-2.7-0.2h-0.6H35v5.5h0.8c0.9,0,1.5-0.2,1.9-0.7c0.4-0.4,0.5-1.2,0.5-2.3v-0.2h2.5v9.2h-2.5
			c0-1.4-0.2-2.3-0.5-2.7c-0.3-0.4-1-0.6-1.9-0.6H35v6.3h3.6c1.4,0,2.3-0.1,2.8-0.2s0.9-0.4,1.2-0.8c0.3-0.5,0.6-1.1,0.7-1.8
			s0.3-1.6,0.4-2.6H47v8.3H25.8v-2.9h1c0.7,0,1.1-0.1,1.3-0.2c0.2-0.2,0.3-0.6,0.3-1.3v-0.1v-11c0-0.8-0.1-1.3-0.3-1.4
			c-0.2-0.2-0.6-0.3-1.4-0.3h-1V24H46.9z"/>
		<path class="st0" d="M60.1,24c4,0,7,0.8,9,2.5c1.9,1.7,2.9,4.2,2.9,7.6c0,3.4-1,5.9-2.9,7.6c-2,1.7-4.9,2.5-8.9,2.5H49.1v-2.9h1
			c0.7,0,1.1-0.1,1.3-0.2c0.2-0.2,0.3-0.6,0.3-1.3v-0.1v-11c0-0.8-0.1-1.3-0.3-1.4s-0.6-0.3-1.4-0.3h-1V24H60.1z M58.5,41.1h1.6
			c1.5,0,2.5-0.5,3.1-1.6c0.6-1.1,1-2.9,1-5.5s-0.3-4.4-1-5.5s-1.7-1.6-3.1-1.6h-1.6V41.1z"/>
		<path class="st0" d="M94.5,24v7.5h-3.2c-0.2-1-0.4-1.7-0.7-2.3c-0.2-0.5-0.5-1-0.8-1.3c-0.4-0.4-0.8-0.7-1.4-0.8
			c-0.5-0.2-1.4-0.2-2.7-0.2h-0.6h-2.6v5.5h0.8c0.9,0,1.5-0.2,1.9-0.7c0.4-0.4,0.5-1.2,0.5-2.3v-0.2h2.5v9.2h-2.5
			c0-1.4-0.2-2.3-0.5-2.7c-0.3-0.4-1-0.6-1.9-0.6h-0.8v6.3h3.6c1.4,0,2.3-0.1,2.8-0.2c0.5-0.2,0.9-0.4,1.2-0.8
			c0.3-0.5,0.6-1.1,0.7-1.8c0.2-0.7,0.3-1.6,0.4-2.6h3.3v8.3H73.4v-2.9h1c0.7,0,1.1-0.1,1.3-0.2s0.3-0.6,0.3-1.3v-0.1v-11
			c0-0.8-0.1-1.3-0.3-1.4s-0.6-0.3-1.4-0.3h-1V24H94.5z"/>
		<path class="st0" d="M98.9,29.3c-0.3-0.8-0.6-1.5-1-1.9c-0.4-0.4-0.9-0.6-1.5-0.6h-1V24h12.1v2.8h-1.1c-0.6,0-1,0.1-1.2,0.2
			s-0.3,0.3-0.3,0.6c0,0.2,0,0.5,0.1,0.7c0,0,0,0,0,0l3.2,10.3l3.3-10.3c0-0.2,0.1-0.3,0.1-0.4s0-0.2,0-0.3c0-0.3-0.1-0.5-0.3-0.6
			c-0.2-0.1-0.6-0.2-1.2-0.2h-1V24h9.4v2.8h-0.7c-0.6,0-1.1,0.1-1.4,0.4c-0.3,0.3-0.6,0.8-0.9,1.5l-5.1,15.3h-6.9L98.9,29.3z"/>
		<path class="st0" d="M125.8,44.1v-2.9h0.9c0.8,0,1.2,0,1.4-0.1c0.2-0.1,0.3-0.2,0.3-0.5c0-0.2,0-0.3,0-0.4c0-0.1-0.1-0.3-0.1-0.4
			l-0.7-2.2h-5.4l-0.6,1.9c-0.1,0.3-0.2,0.5-0.2,0.7s-0.1,0.3-0.1,0.5c0,0.2,0.1,0.3,0.4,0.4c0.2,0.1,0.6,0.1,1,0.1h1v2.9h-9v-2.9
			h0.7c0.5,0,0.9-0.2,1.3-0.5s0.6-0.8,0.9-1.6l5.3-15.2h7.3l4.7,15.1c0.3,1,0.6,1.6,0.9,1.8s0.7,0.3,1.3,0.3h1.1v2.9H125.8z
			 M126.5,34.7l-1.8-6.1l-1.7,6.1H126.5z"/>
		<path class="st0" d="M147.1,24l7.4,13.5v-9c0-0.8-0.1-1.3-0.3-1.5c-0.2-0.2-0.7-0.2-1.3-0.2h-1.1V24h8.8v2.8h-0.7
			c-0.7,0-1.2,0.1-1.4,0.3s-0.3,0.7-0.3,1.4v15.6h-6.9l-7.8-14.4v9.8c0,0.8,0.1,1.3,0.3,1.5c0.2,0.2,0.7,0.3,1.4,0.3h0.9v2.9h-8.9
			v-2.9h1c0.7,0,1.2-0.1,1.4-0.3c0.2-0.2,0.3-0.7,0.3-1.4v-11c0-0.8-0.1-1.2-0.3-1.4s-0.7-0.3-1.4-0.3h-1V24H147.1z"/>
		<path class="st0" d="M173.7,24v2.8h-1c-0.7,0-1.2,0.1-1.4,0.3s-0.3,0.7-0.3,1.4v11c0,0.8,0.1,1.3,0.3,1.4s0.7,0.3,1.4,0.3h1v2.9
			h-12v-2.9h1c0.7,0,1.2-0.1,1.4-0.3s0.3-0.7,0.3-1.4v-11c0-0.8-0.1-1.2-0.3-1.4s-0.7-0.3-1.4-0.3h-1V24H173.7z"/>
		<path class="st0" d="M175.8,36.7h2.9c0.5,1.6,1.3,2.8,2.4,3.6c1.1,0.9,2.4,1.3,3.9,1.3c0.9,0,1.6-0.2,2.2-0.6
			c0.5-0.4,0.8-0.9,0.8-1.5c0-1-1.2-1.8-3.6-2.4c-0.8-0.2-1.4-0.4-1.8-0.5c-1.4-0.4-2.5-0.8-3.3-1.1c-0.8-0.3-1.3-0.6-1.7-0.8
			c-0.8-0.6-1.4-1.3-1.8-2c-0.4-0.7-0.6-1.6-0.6-2.5c0-2,0.7-3.7,2.2-4.9c1.5-1.2,3.5-1.9,5.9-1.9c1.2,0,2.4,0.1,3.5,0.4
			c1.1,0.2,2.1,0.6,3.1,1.1l0.5-1h2.9v7h-3.4c-0.3-1.4-1-2.5-1.9-3.2c-0.9-0.7-2.1-1-3.7-1c-0.9,0-1.6,0.2-2.2,0.6
			c-0.6,0.4-0.9,0.9-0.9,1.5c0,0.9,1.1,1.6,3.3,2c0.5,0.1,1,0.2,1.3,0.3c3.1,0.7,5.3,1.6,6.5,2.7c1.2,1.1,1.9,2.5,1.9,4.3
			c0,2-0.8,3.6-2.3,4.9c-1.5,1.2-3.6,1.8-6.2,1.8c-1.2,0-2.3-0.1-3.4-0.4c-1.1-0.3-2.2-0.7-3.3-1.2l-0.7,1.1h-2.8V36.7z"/>
		<path class="st0" d="M207,24v2.8h-0.3c-0.6,0-1,0.1-1.2,0.3c-0.2,0.2-0.3,0.7-0.3,1.4v3.6h5.6v-3.6c0-0.8-0.1-1.2-0.3-1.4
			s-0.6-0.3-1.2-0.3H209V24h11.2v2.8h-1c-0.7,0-1.2,0.1-1.4,0.3s-0.3,0.7-0.3,1.4v11c0,0.8,0.1,1.3,0.3,1.5s0.7,0.3,1.4,0.3h1v2.9
			H209v-2.9h0.3c0.6,0,1-0.1,1.2-0.3s0.3-0.7,0.3-1.4V35h-5.6v4.5c0,0.8,0.1,1.2,0.3,1.4s0.6,0.3,1.2,0.3h0.3v2.9h-11.2v-2.9h1
			c0.7,0,1.1-0.1,1.3-0.2s0.3-0.7,0.3-1.5v-11c0-0.8-0.1-1.3-0.3-1.5s-0.6-0.3-1.4-0.3h-1V24H207z"/>
		<path class="st0" d="M223.3,29.3c-0.3-0.8-0.6-1.5-1-1.9c-0.4-0.4-0.9-0.6-1.5-0.6h-1V24h12.1v2.8h-1.1c-0.6,0-1,0.1-1.2,0.2
			c-0.2,0.1-0.3,0.3-0.3,0.6c0,0.2,0,0.5,0.1,0.7c0,0,0,0,0,0l3.2,10.3l3.3-10.3c0-0.2,0.1-0.3,0.1-0.4c0-0.1,0-0.2,0-0.3
			c0-0.3-0.1-0.5-0.3-0.6c-0.2-0.1-0.6-0.2-1.2-0.2h-1V24h9.4v2.8h-0.7c-0.6,0-1.1,0.1-1.4,0.4c-0.3,0.3-0.6,0.8-0.9,1.5l-5.1,15.3
			h-6.9L223.3,29.3z"/>
		<path class="st0" d="M254.8,24v2.8h-1c-0.7,0-1.2,0.1-1.4,0.3s-0.3,0.7-0.3,1.4v11c0,0.8,0.1,1.3,0.3,1.4s0.7,0.3,1.4,0.3h1v2.9
			h-12v-2.9h1c0.7,0,1.2-0.1,1.4-0.3s0.3-0.7,0.3-1.4v-11c0-0.8-0.1-1.2-0.3-1.4c-0.2-0.2-0.7-0.3-1.4-0.3h-1V24H254.8z"/>
		<path class="st0" d="M268,24v2.8h-1.1c-0.7,0-1.1,0.1-1.3,0.2s-0.3,0.6-0.3,1.3v0.1v12.7h1.3c1.3,0,2.1-0.1,2.6-0.2
			s0.9-0.4,1.2-0.7c0.4-0.4,0.7-1,0.9-1.7c0.2-0.7,0.3-1.7,0.4-2.9h3.1v8.4h-18.9v-2.9h1c0.7,0,1.2-0.1,1.4-0.3s0.3-0.7,0.3-1.5v-11
			c0-0.8-0.1-1.3-0.3-1.4s-0.6-0.3-1.4-0.3h-1V24H268z"/>
		<path class="st0" d="M288.6,24v2.8h-1c-0.7,0-1.2,0.1-1.4,0.3c-0.2,0.2-0.3,0.7-0.3,1.4v11c0,0.8,0.1,1.3,0.3,1.4s0.7,0.3,1.4,0.3
			h1v2.9h-12v-2.9h1c0.7,0,1.2-0.1,1.4-0.3s0.3-0.7,0.3-1.4v-11c0-0.8-0.1-1.2-0.3-1.4s-0.7-0.3-1.4-0.3h-1V24H288.6z"/>
	</g>
</g>
</svg>
